<?xml version="1.0" encoding="utf-8"?>
<!-- Generator: Adobe Illustrator 19.2.0, SVG Export Plug-In . SVG Version: 6.00 Build 0)  -->
<svg version="1.1" id="Layer_1" xmlns="http://www.w3.org/2000/svg" xmlns:xlink="http://www.w3.org/1999/xlink" x="0px" y="0px"
	 viewBox="0 0 512 512" style="enable-background:new 0 0 512 512;" xml:space="preserve">
<style type="text/css">
	.st0{fill:#9627D1;stroke:#FFFFFF;stroke-width:9;stroke-miterlimit:10;}
	.st1{fill:#FFFFFF;}
</style>
<circle class="st0" cx="256" cy="256" r="249.6"/>
<g>
	<path class="st1" d="M266.1,88.6c-0.7,1.2-1.8,1.8-3.1,1.8c-1.3,0-3.2-1.2-5.5-3.5c-2.4-2.4-5.6-5-9.9-7.9
		c-4.2-2.9-9.7-5.5-16.3-7.9c-6.6-2.4-14.8-3.5-24.6-3.5c-9.9,0-18.7,1.5-26.3,4.4c-7.7,3-14.1,7-19.3,12
		c-5.2,5.1-9.1,10.9-11.8,17.5c-2.7,6.6-4,13.5-4,20.7c0,9.3,1.9,17,5.6,23.3c3.7,6.2,8.7,11.4,14.8,15.7
		c6.2,4.2,13.1,7.8,20.9,10.7c7.8,2.9,15.8,5.7,24,8.4c8.2,2.7,16.2,5.6,24,8.7c7.8,3.1,14.8,7,20.9,11.7s11.1,10.5,14.8,17.5
		c3.7,6.9,5.6,15.5,5.6,25.8c0,10.5-1.8,20.4-5.3,29.6c-3.6,9.2-8.8,17.3-15.6,24.1c-6.8,6.8-15.1,12.2-25,16.1
		c-9.8,3.9-21,5.9-33.6,5.9c-8.6,0-16.3-0.8-23.3-2.3c-6.9-1.5-13.3-3.7-19.2-6.5c-5.9-2.8-11.2-6.3-16.1-10.4
		c-4.9-4.1-9.6-8.7-14-13.9l2.4-3.6c0.6-0.6,1.1-1.1,1.5-1.4c0.4-0.3,1.1-0.5,1.9-0.5c0.8,0,2,0.8,3.5,2.3c1.5,1.5,3.5,3.4,5.9,5.6
		c2.4,2.2,5.3,4.6,8.7,7.2c3.4,2.6,7.4,5,12,7.2c4.6,2.2,10,4.1,16.1,5.6c6.1,1.5,13,2.3,20.7,2.3c11,0,20.8-1.7,29.5-5.2
		c8.7-3.4,16-8.1,22-14.1c6-6,10.5-12.9,13.7-20.9c3.1-8,4.7-16.5,4.7-25.5c0-9.7-1.9-17.6-5.6-23.9c-3.7-6.3-8.7-11.5-14.8-15.7
		c-6.1-4.2-13.1-7.8-20.9-10.6c-7.8-2.8-15.8-5.5-24-8.1c-8.1-2.6-16.1-5.4-24-8.5c-7.8-3.1-14.8-7-20.9-11.8
		c-6.1-4.8-11-10.7-14.8-17.7c-3.7-7.1-5.6-15.9-5.6-26.5c0-8.3,1.6-16.3,4.7-23.9c3.1-7.6,7.7-14.3,13.7-20.2
		c6-5.9,13.3-10.5,22.1-14c8.7-3.5,18.8-5.2,30.1-5.2c12.8,0,24.1,2.1,33.9,6.2c9.8,4.1,19,10.5,27.6,19.2L266.1,88.6z"/>
</g>
<g>
	<path class="st1" d="M440.7,308.8c0,19.9-2.9,37.7-8.7,53.5c-5.8,15.7-13.9,29.1-24.4,40c-10.5,10.9-23,19.3-37.6,25.1
		c-14.6,5.8-30.7,8.7-48.3,8.7h-91.8V181.6h91.8c17.6,0,33.7,2.9,48.3,8.7c14.6,5.8,27.2,14.1,37.6,25.1
		c10.5,10.9,18.6,24.3,24.4,40C437.8,271.1,440.7,288.9,440.7,308.8z M430.2,308.8c0-18.9-2.6-35.8-7.9-50.6
		c-5.2-14.8-12.7-27.2-22.3-37.4c-9.6-10.1-21.1-17.9-34.4-23.2c-13.3-5.3-28-8-44.1-8h-81.8v238.2h81.8c16,0,30.7-2.7,44.1-8
		c13.3-5.3,24.8-13,34.4-23.2c9.6-10.1,17-22.6,22.3-37.4C427.6,344.6,430.2,327.8,430.2,308.8z"/>
</g>
</svg>
